<svg version="1.1" id="Layer_1" xmlns="http://www.w3.org/2000/svg" xmlns:xlink="http://www.w3.org/1999/xlink" x="0px" y="0px"
	 width="100%" viewBox="0 0 672 736" enable-background="new 0 0 672 736" xml:space="preserve">
<path fill="#6b21a8" opacity="1.000000" stroke="none" 
	d="
M629.941528,273.698303 
	C625.798523,278.819305 620.821533,280.782684 614.707092,279.421417 
	C612.455383,278.920166 610.846558,279.652985 609.464111,281.372467 
	C588.171509,307.855469 566.880737,334.339996 545.539307,360.783569 
	C543.691772,363.072845 543.238892,365.065399 544.359619,368.019684 
	C546.365662,373.307709 543.777161,380.070496 539.092468,383.559601 
	C534.622803,386.888672 528.834290,386.921814 523.792725,383.217468 
	C521.325439,381.404663 519.448608,381.221039 516.597534,382.638031 
	C494.399384,393.670319 472.101501,404.502502 449.799194,415.323853 
	C447.599823,416.391052 446.764587,417.621857 446.629242,420.230560 
	C446.250336,427.531830 439.431458,433.776459 433.217102,433.064575 
	C425.820709,432.217346 419.999176,425.481384 421.032166,417.952667 
	C421.585663,413.918671 420.451019,411.372192 417.641693,408.839294 
	C408.734039,400.807983 399.958008,392.630798 391.105530,384.537964 
	C389.643799,383.201691 388.256500,381.719879 385.763428,380.888763 
	C381.897888,384.644684 381.223053,390.118744 379.449860,394.900116 
	C372.404114,413.898590 365.682373,433.017456 358.876526,452.104523 
	C357.930634,454.757355 357.126648,457.465393 356.370239,460.179413 
	C355.929749,461.759949 356.032410,463.772186 353.814117,463.919128 
	C351.310974,464.084930 351.097778,461.806763 350.524292,460.172760 
	C348.219177,453.604950 346.082886,446.977722 343.763367,440.415192 
	C336.408020,419.604950 328.837738,398.869202 321.656921,377.999268 
	C315.074432,358.868378 308.958923,339.577301 302.506622,320.400940 
	C297.739380,306.232544 292.774719,292.130463 287.872620,278.007660 
	C285.044342,269.859558 282.181000,261.723511 279.297943,253.594635 
	C278.640015,251.739548 278.138153,249.783844 276.509521,248.064621 
	C274.719208,249.351898 274.549805,251.427795 273.950562,253.155731 
	C267.861420,270.713623 261.882721,288.309845 255.788803,305.866058 
	C254.245071,310.313477 253.734528,314.462341 258.138672,318.963470 
	C264.388367,303.618805 270.403412,288.850189 276.343903,274.264587 
	C279.410767,274.203369 279.996887,275.970398 280.478607,277.748749 
	C284.728699,293.439667 290.601868,308.603577 295.672791,324.025818 
	C296.711914,327.186188 296.153015,329.454407 294.885193,331.957703 
	C283.537079,354.364655 273.065613,377.188446 262.401794,399.921997 
	C261.425293,402.003723 261.669281,405.686035 258.481049,405.660461 
	C255.499908,405.636536 255.399368,402.138458 254.305511,400.039795 
	C233.003891,359.170959 213.104553,317.607788 193.016418,276.137970 
	C192.306747,274.672943 191.741425,273.041748 189.275742,271.852753 
	C178.226746,295.180817 167.188354,318.486450 156.250351,341.580139 
	C153.279099,341.609619 152.797974,339.629913 151.920242,338.101624 
	C141.559326,320.061432 131.158722,302.043762 120.896492,283.947601 
	C119.300102,281.132568 116.880463,279.873260 114.071793,279.507782 
	C100.409386,277.730255 87.075615,274.221191 73.500656,271.990417 
	C66.791229,270.887817 60.141338,269.423248 53.463615,268.127045 
	C52.095921,267.861603 50.735352,267.435303 50.588123,265.834869 
	C50.414867,263.951538 51.982346,263.923126 53.291615,263.658875 
	C71.666412,259.949829 90.044907,256.258545 108.408310,252.493774 
	C116.365005,250.862534 124.311691,249.168930 132.219482,247.318085 
	C136.629196,246.285965 139.851395,247.086929 142.330521,251.288971 
	C144.498383,254.963455 147.197342,258.381561 150.660568,261.332489 
	C153.465057,258.977203 154.463120,255.716568 155.842087,252.795898 
	C165.849136,231.600784 175.734329,210.348145 185.659500,189.114365 
	C186.222794,187.909271 186.772308,186.696640 187.376068,185.511887 
	C188.018250,184.251678 188.106796,182.388809 190.191849,182.553024 
	C192.030701,182.697861 192.440857,184.262451 193.083069,185.619492 
	C204.676331,210.117340 216.283432,234.608643 227.898163,259.096313 
	C228.245010,259.827606 228.510666,260.680298 230.212036,261.020630 
	C245.562210,217.109055 260.948364,173.094574 276.334503,129.080093 
	C277.041779,129.011597 277.749054,128.943115 278.456329,128.874634 
	C291.656555,165.291397 302.717438,202.455215 315.271088,239.095688 
	C327.830139,275.751923 339.891235,312.578766 352.432220,350.113831 
	C355.956543,345.886444 356.658966,341.430328 358.039520,337.386627 
	C363.835449,320.410065 370.516174,303.773926 376.964844,287.046997 
	C379.636261,280.117767 379.372284,279.700134 372.317749,278.042999 
	C365.544891,276.451996 361.496399,271.871124 361.351074,265.634064 
	C361.193878,258.888214 366.008789,252.693878 372.724396,251.002258 
	C378.164185,249.631989 378.937744,248.353882 377.172852,242.647003 
	C373.742889,231.555862 370.186737,220.503647 366.666840,209.440414 
	C364.964661,204.090363 363.226196,198.751862 361.152588,192.317139 
	C357.306427,197.857803 356.313354,203.583694 354.460083,208.821747 
	C349.095490,223.984024 344.157562,239.297287 339.058441,254.553391 
	C338.272552,256.904541 337.578491,259.288177 336.729004,261.615570 
	C336.240875,262.953033 336.108246,264.801117 334.121094,264.821503 
	C332.170044,264.841553 331.932709,263.153442 331.439178,261.729919 
	C327.903198,251.531754 324.285065,241.361801 320.797699,231.147156 
	C318.651917,224.862137 316.785950,218.480942 314.602020,212.209900 
	C313.672607,209.541214 313.734375,207.179520 314.669556,204.486526 
	C325.077576,174.515518 335.382172,144.508530 345.679688,114.499229 
	C349.936218,102.094711 354.099091,89.658073 358.332764,77.245659 
	C358.784637,75.920883 358.738098,73.966339 360.868744,74.132828 
	C362.745605,74.279480 362.889252,75.943710 363.365906,77.398888 
	C371.217926,101.369667 379.104279,125.329262 387.050903,149.268814 
	C387.705475,151.240799 387.875336,153.539597 390.055634,155.170349 
	C393.022308,153.289124 395.008514,150.374954 397.304260,147.846878 
	C404.921234,139.459000 412.370239,130.918625 419.984497,122.528183 
	C421.562408,120.789383 422.245453,119.411690 421.517090,116.852997 
	C419.317474,109.125969 424.194427,100.887039 431.165863,99.844543 
	C439.524323,98.594650 445.477844,103.426842 446.187042,112.305542 
	C446.362152,114.498299 447.274658,115.461647 449.141998,116.330971 
	C472.213379,127.071762 495.255127,137.876297 518.276672,148.723511 
	C519.993591,149.532516 521.189880,149.394485 522.819275,148.347397 
	C530.124207,143.653122 534.406860,143.664688 540.160767,148.036163 
	C544.674988,151.465759 546.038696,156.692627 543.723083,163.843811 
	C542.745300,166.863525 544.248901,168.582962 545.805298,170.524704 
	C562.890991,191.840591 579.997131,213.140137 597.062134,234.472595 
	C601.431580,239.934738 605.680908,245.492996 609.974854,251.015381 
	C611.483887,252.956070 613.153076,254.453003 615.894714,253.683533 
	C621.443848,252.126129 625.682373,254.338593 629.025635,258.562103 
	C632.686523,263.186951 633.336304,268.171570 629.941528,273.698303 
M409.936127,346.764069 
	C411.691772,351.538513 413.447449,356.312958 415.256226,361.231812 
	C425.763580,358.238281 435.041718,353.764130 444.567413,349.935242 
	C448.410309,348.390625 453.517517,341.009186 453.162415,337.085815 
	C453.107697,336.481598 452.700745,335.841339 452.298126,335.346863 
	C447.361084,329.284271 442.383759,323.254486 437.441376,317.196259 
	C435.731506,315.100372 433.609039,314.604462 431.192474,315.602539 
	C422.900085,319.027557 414.628601,322.503357 406.358917,325.983032 
	C404.540131,326.748383 403.205200,327.712280 404.091278,330.136993 
	C406.018005,335.409698 407.775665,340.744232 409.936127,346.764069 
M456.172211,126.380035 
	C453.083313,125.000763 449.994415,123.621490 446.020203,121.846886 
	C446.874847,123.374977 447.122681,123.992508 447.516083,124.496346 
	C460.816254,141.529404 474.150116,158.536224 487.417633,175.594650 
	C489.116180,177.778503 490.674286,177.105927 492.585114,176.049561 
	C499.420013,172.271072 506.329742,168.627747 513.158691,164.838715 
	C515.316101,163.641663 518.209900,163.346497 518.169250,159.572830 
	C518.127258,155.675110 516.020142,154.126480 512.953430,152.623032 
	C494.449402,143.551575 475.645538,135.135010 456.172211,126.380035 
M580.874695,242.546356 
	C588.665649,246.932007 596.456604,251.317642 604.247559,255.703293 
	C604.509583,255.348267 604.771545,254.993240 605.033569,254.638214 
	C583.738098,227.531616 562.377014,200.477829 540.062683,173.749481 
	C538.842712,175.984467 539.368652,177.559311 539.735352,179.148666 
	C542.600708,191.568604 545.459839,203.989975 548.306824,216.414139 
	C549.603455,222.072189 551.023865,227.153534 557.394165,229.915451 
	C565.295227,233.341049 572.646423,238.034851 580.874695,242.546356 
M561.114014,298.654388 
	C559.046936,299.725250 557.026978,300.903137 554.900879,301.840088 
	C552.190674,303.034515 550.943848,305.155457 550.288330,307.909515 
	C547.454529,319.814545 544.249939,331.641907 541.820374,343.627289 
	C540.865967,348.335236 538.372681,352.893341 539.440430,358.725952 
	C560.944519,331.312103 582.625488,304.838928 604.414917,278.452881 
	C604.133118,278.141571 603.851318,277.830261 603.569458,277.518921 
	C589.643982,284.458862 575.718445,291.398834 561.114014,298.654388 
M480.880707,393.294098 
	C491.933258,387.925110 502.980194,382.544525 514.043945,377.198822 
	C515.853943,376.324249 517.758667,375.712646 517.837036,373.150940 
	C517.919250,370.465607 515.889709,369.857330 514.073059,369.161926 
	C505.865143,366.019989 497.509521,363.231049 489.445770,359.760498 
	C485.860535,358.217468 484.017456,359.184631 481.973328,361.904938 
	C473.880737,372.674316 465.669220,383.354218 457.531097,394.089478 
	C453.859985,398.932190 450.257507,403.826904 446.623901,408.697998 
	C458.675629,405.097717 469.124756,398.672943 480.880707,393.294098 
M479.988922,275.001465 
	C479.364380,269.689697 479.965820,264.740997 484.164337,260.850830 
	C485.158447,259.929779 485.204620,258.855927 484.694580,257.662201 
	C481.588654,250.393280 479.737183,242.606384 475.556335,234.910629 
	C463.675629,244.497955 452.151306,253.797668 440.372467,263.302795 
	C446.482361,269.012360 453.096130,272.605011 459.103668,277.009155 
	C469.068390,284.314362 469.224304,284.211578 478.986176,276.303162 
	C479.242249,276.095703 479.440735,275.817108 479.988922,275.001465 
M414.253815,171.687012 
	C411.275757,179.255264 408.325958,186.834808 405.302124,194.384735 
	C404.414551,196.600967 404.371460,198.047226 407.199890,198.850449 
	C410.707062,199.846420 414.062439,201.367889 417.506256,202.598312 
	C423.538269,204.753479 430.734192,199.660751 430.710754,193.155380 
	C430.666412,180.835144 430.468811,168.515503 430.409760,156.195267 
	C430.372040,148.324814 430.714935,140.441177 429.440613,131.619080 
	C424.248322,145.400116 419.426208,158.198700 414.253815,171.687012 
M435.539612,404.928894 
	C443.223755,389.822998 448.980133,373.912323 454.959686,358.101929 
	C456.248108,354.695251 454.377838,353.036133 450.801086,354.238800 
	C447.198395,355.450195 443.617340,356.804962 440.187683,358.435364 
	C432.905029,361.897400 424.905518,363.744873 417.650238,368.016815 
	C422.104492,379.666412 426.386414,390.952454 430.755920,402.204468 
	C431.456604,404.008789 432.171753,406.175781 435.539612,404.928894 
M531.770020,288.281036 
	C534.876648,283.957886 538.058228,279.685913 541.059631,275.290924 
	C542.657349,272.951385 543.093750,270.636810 539.034973,270.922272 
	C528.756592,271.644989 518.479980,272.424622 508.221313,273.381470 
	C504.596375,273.719543 499.872986,280.943298 500.908325,284.289795 
	C502.768555,290.302582 504.825745,296.254150 506.720215,302.256683 
	C507.514618,304.773651 507.722198,307.392914 511.362488,307.804016 
	C514.945557,308.208710 517.404968,307.095856 519.491333,304.281158 
	C523.352722,299.071777 527.367615,293.976166 531.770020,288.281036 
M523.411377,244.123123 
	C517.198853,242.420486 510.899170,240.975876 504.806885,238.917450 
	C501.210175,237.702225 499.805878,239.253586 498.933289,242.107452 
	C497.446747,246.969437 496.128296,251.882812 494.734741,256.790405 
	C498.103302,258.749451 501.167023,260.537292 502.999298,263.624329 
	C504.470032,266.102264 506.540375,266.855835 509.261749,266.789001 
	C519.072815,266.548035 528.734375,264.338959 538.595764,264.667023 
	C541.265198,264.755859 542.521851,262.643585 541.072754,260.651581 
	C536.427551,254.266037 533.729492,245.694595 523.411377,244.123123 
M439.282379,198.895599 
	C441.631653,199.799500 443.392822,202.737839 446.470673,201.122513 
	C451.297638,198.589218 456.238708,196.219147 460.420532,192.436874 
	C453.481079,171.177765 444.407257,150.916550 436.578766,128.726242 
	C436.812592,133.491013 437.102875,136.799789 437.115906,140.109665 
	C437.185455,157.755661 437.164795,175.402008 437.240051,193.047974 
	C437.248138,194.946259 436.550110,197.122131 439.282379,198.895599 
M470.025269,319.735443 
	C472.302704,313.677917 474.571869,307.617249 476.860321,301.563904 
	C478.590332,296.987732 474.523407,296.004395 472.156952,294.009949 
	C470.084900,292.263611 468.163696,290.793610 465.176056,292.991791 
	C458.082001,298.211304 450.768311,303.134857 443.490784,308.100922 
	C441.183411,309.675446 440.919006,311.318787 442.647064,313.464874 
	C447.025208,318.902191 451.278046,324.442688 455.744080,329.806152 
	C459.406921,334.205048 464.702606,333.259094 466.985504,327.906494 
	C468.024353,325.470673 468.887451,322.959839 470.025269,319.735443 
M463.485382,225.115799 
	C458.650146,223.403305 453.820587,221.674469 448.976349,219.987808 
	C447.416260,219.444626 445.776398,218.736710 444.211792,219.869583 
	C440.198303,222.775513 436.032684,225.344635 437.073303,231.656540 
	C437.766479,235.861053 437.112823,240.274216 437.246979,244.588226 
	C437.372223,248.616608 436.683960,252.719803 437.954346,257.384644 
	C449.752563,247.934799 461.066162,238.873077 472.560211,229.666824 
	C470.030334,226.600281 466.762421,226.662735 463.485382,225.115799 
M541.592590,221.051682 
	C543.515930,220.280853 542.508545,218.902710 542.242188,217.728363 
	C539.016846,203.507874 535.784729,189.288895 532.514343,175.078720 
	C532.135803,173.434067 531.499268,171.797333 529.522827,171.483582 
	C527.365295,171.141098 526.658813,172.867645 525.950500,174.347519 
	C523.294189,179.897263 520.860840,185.559647 518.033813,191.019287 
	C516.550049,193.884949 516.440186,196.053513 518.677063,198.627029 
	C520.406616,200.616806 521.405396,203.284409 521.191162,206.048080 
	C520.961304,209.012436 522.416016,210.634109 524.836853,211.933594 
	C530.258484,214.843918 535.609131,217.886765 541.592590,221.051682 
M453.895081,142.583054 
	C450.384491,138.149216 446.873932,133.715363 443.363373,129.281525 
	C445.704132,136.575607 448.578491,143.470230 451.218079,150.453598 
	C455.618683,162.095901 459.846344,173.803497 464.207428,185.460922 
	C464.853241,187.187271 465.208405,190.192261 467.891846,189.014801 
	C473.151123,186.707077 478.416992,184.244522 483.362762,180.527435 
	C473.855286,167.540756 464.231720,155.236084 453.895081,142.583054 
M520.162415,337.555908 
	C522.786865,343.635590 525.411987,349.714966 528.035156,355.795197 
	C528.573975,357.044098 529.152893,358.355347 530.799927,358.193481 
	C532.571533,358.019440 532.449829,356.498169 532.756592,355.202087 
	C534.888855,346.191498 537.360535,337.251587 539.180908,328.180176 
	C540.462708,321.792847 543.242188,315.651276 542.972900,308.222961 
	C538.947144,310.194885 535.422363,311.935852 531.884827,313.650604 
	C527.141907,315.949524 521.943237,317.705231 522.864197,324.812805 
	C523.058350,326.310944 521.678772,328.308136 520.513611,329.622894 
	C518.392578,332.016327 518.496094,334.314056 520.162415,337.555908 
M492.861145,192.568939 
	C486.962708,184.963501 488.445221,185.199783 479.830475,189.630020 
	C477.165497,191.000504 474.551178,192.473709 471.853241,193.774551 
	C469.238251,195.035385 468.728027,197.039307 469.547760,199.574341 
	C470.058136,201.152573 470.609070,202.728882 471.291687,204.238251 
	C474.129700,210.513550 475.419739,217.451324 479.069641,223.726837 
	C484.442444,220.573776 488.728149,216.888031 493.140717,213.380173 
	C494.304291,212.455185 494.882507,211.322220 494.041779,209.903549 
	C492.156708,206.722534 493.127136,203.593506 494.774506,200.903748 
	C496.801636,197.593979 495.643677,195.353058 492.861145,192.568939 
M395.928528,175.698425 
	C397.285858,179.716888 398.643158,183.735336 400.436188,189.043747 
	C409.490936,168.047638 416.695038,147.693024 424.168610,127.365005 
	C416.210083,135.660309 409.095093,144.752533 400.706146,152.457764 
	C393.309265,159.251755 390.724854,165.951660 395.928528,175.698425 
M567.136475,271.357147 
	C565.784668,272.814087 564.701294,274.821533 563.035217,275.634216 
	C555.144165,279.483337 556.716553,287.375916 554.207092,293.505371 
	C554.564575,293.882935 554.922119,294.260498 555.279602,294.638092 
	C571.005981,286.828430 586.732361,279.018799 603.692383,270.596558 
	C591.563049,268.731293 580.837830,269.072906 570.117981,269.306213 
	C569.036804,269.329742 568.282104,269.981995 567.136475,271.357147 
M520.821655,362.525055 
	C522.514954,361.146912 522.554443,359.468323 521.755066,357.604584 
	C519.014893,351.215607 516.381104,344.778961 513.522644,338.443573 
	C511.963379,334.987549 506.164703,333.441132 503.528076,336.115570 
	C498.587646,341.126953 493.906097,346.441345 489.635437,352.836517 
	C499.315887,356.583435 508.367615,360.127838 517.470520,363.535675 
	C518.230164,363.820099 519.334595,363.183868 520.821655,362.525055 
M472.675812,331.469330 
	C471.807831,332.902130 471.679932,334.178558 473.085083,335.461945 
	C474.510529,336.763916 475.712128,336.229431 477.144104,335.502472 
	C482.476593,332.795349 487.826477,330.117676 493.235718,327.568634 
	C495.837677,326.342499 496.968323,324.529846 496.765747,321.660217 
	C496.626312,319.685547 496.573090,317.647186 497.726624,315.847717 
	C498.451263,314.717316 498.409149,313.611847 497.415649,312.688416 
	C493.316589,308.878448 488.839844,305.602142 483.650665,302.388824 
	C479.496368,312.141144 476.039642,321.412903 472.675812,331.469330 
M458.000275,283.426910 
	C451.532562,278.984467 445.255493,274.230560 437.338440,269.836700 
	C437.338440,280.583710 437.238861,290.023895 437.390198,299.460052 
	C437.446350,302.958740 439.259644,303.242889 441.984833,301.371094 
	C446.781006,298.076813 451.763733,295.051758 456.521851,291.705627 
	C458.458069,290.343994 460.948547,289.437073 462.145508,286.718689 
	C460.851288,285.673462 459.706146,284.748657 458.000275,283.426910 
M422.402802,404.686066 
	C423.178070,405.110840 423.521881,406.416748 425.269714,405.680054 
	C420.934540,394.597992 416.610657,383.524597 412.264435,372.459991 
	C411.733368,371.108002 410.757050,370.029327 409.213959,370.601868 
	C403.712341,372.643188 397.798553,373.683258 391.951904,377.292542 
	C402.260406,386.558746 412.101624,395.404877 422.402802,404.686066 
M422.369415,254.133377 
	C422.956482,256.026855 423.278229,258.037659 424.594025,259.623596 
	C425.625946,260.867340 427.026550,261.364716 428.596405,261.132263 
	C430.212219,260.893005 430.739441,259.660553 430.708069,258.221039 
	C430.477051,247.616302 430.310669,237.008301 429.884796,226.410950 
	C429.775360,223.688568 427.970856,222.379745 425.463867,224.328918 
	C422.590759,226.562820 419.975067,229.125992 417.220154,231.514511 
	C415.885559,232.671646 415.969788,233.784470 416.540802,235.447540 
	C418.574188,241.369705 420.304352,247.395981 422.369415,254.133377 
M460.169373,362.735992 
	C455.626190,373.993683 451.083008,385.251343 446.539825,396.509033 
	C458.241364,383.588165 469.063904,370.235382 478.668854,356.108887 
	C476.517761,353.465088 474.825500,354.250122 473.074280,355.583923 
	C470.117706,357.835846 466.949768,359.587677 463.089325,359.681549 
	C461.582520,359.718231 460.591125,360.489105 460.169373,362.735992 
M523.113892,224.425522 
	C525.291687,227.559998 528.018005,230.450989 529.538879,233.877090 
	C533.291870,242.331467 540.932678,242.595200 548.318298,244.313080 
	C548.377502,234.897675 546.362854,231.003235 539.422546,226.999649 
	C534.247986,224.014664 529.029663,221.094360 523.715942,218.369293 
	C522.284119,217.635010 520.922302,215.800110 518.776123,217.005341 
	C519.070801,219.940323 521.535583,221.517868 523.113892,224.425522 
M494.728424,185.118118 
	C496.273926,187.067780 497.707489,189.120651 499.389160,190.944809 
	C502.526093,194.347610 509.105560,193.718307 511.227448,189.752838 
	C514.509583,183.619141 517.598511,177.381912 520.755493,171.181534 
	C521.266846,170.177231 522.061462,169.140869 520.392334,167.736282 
	C511.787720,171.812546 503.362610,176.652847 494.999603,181.607681 
	C493.793793,182.322098 493.606934,183.381088 494.728424,185.118118 
M422.246338,272.683563 
	C419.753723,277.406586 419.304321,282.799835 417.341736,287.706512 
	C416.883026,288.853271 416.340302,290.388367 417.340668,291.525177 
	C420.925934,295.599396 425.627258,298.101746 430.888947,302.149139 
	C430.888947,290.570587 430.900696,280.644379 430.876678,270.718262 
	C430.872955,269.172180 430.597382,267.658722 428.731445,267.260315 
	C426.863770,266.861542 425.031586,266.838257 423.923187,268.781708 
	C423.352264,269.782745 422.959045,270.885132 422.246338,272.683563 
M406.162811,355.256927 
	C403.718597,350.377655 402.957336,344.736328 399.203735,339.083130 
	C395.333710,350.078552 391.149048,359.766937 388.234802,370.820831 
	C395.126007,369.101135 400.819977,367.086029 406.306793,364.452118 
	C408.500580,363.398987 409.177368,361.929169 407.872131,359.652344 
	C407.226440,358.525909 406.937744,357.194855 406.162811,355.256927 
M526.597412,309.110016 
	C532.074890,306.357452 537.566101,303.631622 543.020752,300.834656 
	C544.490601,300.080994 546.027588,299.231689 546.542664,297.498047 
	C547.952271,292.753387 549.439331,288.021820 550.568848,283.208374 
	C551.087524,280.997894 551.184326,278.430084 547.303040,277.704712 
	C540.255249,287.273285 533.075256,296.990570 525.955200,306.751587 
	C525.437561,307.461212 524.098450,308.560333 526.597412,309.110016 
M456.197784,216.338882 
	C459.509003,217.413345 462.781555,218.635910 466.143921,219.514618 
	C468.753204,220.196548 470.035156,219.223618 469.022797,216.320892 
	C467.439087,211.779724 465.942566,207.208237 464.370544,202.662918 
	C463.429443,199.941666 461.862427,198.938980 459.098755,200.643890 
	C456.415192,202.299377 453.581238,203.708923 450.856873,205.300919 
	C449.179230,206.281235 447.122925,207.027679 447.502289,209.651794 
	C447.875519,212.233414 449.312500,213.834549 451.783508,214.611267 
	C453.043060,215.007172 454.261780,215.533096 456.197784,216.338882 
M582.220337,250.342896 
	C572.921814,245.097275 563.663635,239.773529 553.934387,235.219131 
	C553.936401,243.334229 556.496216,248.497986 565.167847,250.125977 
	C574.987732,251.969513 584.540649,255.235062 594.209656,257.882294 
	C594.316284,257.601501 594.422852,257.320709 594.529480,257.039917 
	C590.643677,254.922165 586.757874,252.804428 582.220337,250.342896 
M514.684265,222.784805 
	C510.566681,218.041260 506.902191,218.258698 504.546967,223.467941 
	C503.873108,224.958374 503.653900,226.648834 503.046204,228.175964 
	C502.127380,230.485062 503.245514,231.761475 505.211945,232.349197 
	C511.322815,234.175613 517.476257,235.859573 525.093994,238.018463 
	C521.184875,232.325378 518.121094,227.863480 514.684265,222.784805 
M418.493408,301.193604 
	C417.121948,300.429260 416.152008,298.756592 413.743378,299.359955 
	C411.431427,304.943481 408.537140,310.545776 407.102417,317.980499 
	C414.598328,315.215698 421.252106,313.345184 427.467682,309.161530 
	C424.777740,305.942657 422.076080,303.592834 418.493408,301.193604 
M408.700684,214.812469 
	C410.852295,218.080399 410.688324,222.474258 413.619659,225.435638 
	C416.732544,224.562454 418.276794,222.013077 420.330353,220.171753 
	C422.727173,218.022583 421.972382,211.386261 419.029846,210.007019 
	C415.055420,208.144135 410.847412,206.779526 406.664368,205.172195 
	C405.303406,208.877350 408.380737,211.149780 408.700684,214.812469 
M487.524078,296.985382 
	C491.026794,300.180878 494.650177,303.201233 499.768066,305.895935 
	C499.135681,298.151215 496.377594,292.008972 494.067352,285.813416 
	C493.407806,284.044739 490.797913,283.459381 489.717651,285.717804 
	C488.129852,289.037170 485.869690,292.351593 487.524078,296.985382 
M481.557770,340.169037 
	C479.331421,341.078613 478.118378,342.625702 478.145630,345.140839 
	C478.164459,346.876221 478.168762,348.541870 480.034729,349.371338 
	C481.370026,349.964905 482.860687,351.001190 484.144104,349.497711 
	C488.397888,344.514404 492.557709,339.450836 496.753571,334.418091 
	C496.451508,334.072632 496.149414,333.727173 495.847321,333.381744 
	C491.016083,334.858185 486.691620,337.508453 481.557770,340.169037 
M482.528748,234.449280 
	C484.442719,239.715225 486.356689,244.981186 488.524353,250.945175 
	C491.340637,247.294083 491.707397,243.768707 492.638000,240.539886 
	C493.155334,238.744766 495.095947,235.541702 492.266815,234.982224 
	C489.137695,234.363434 486.161194,230.246964 482.528748,234.449280 
M574.142822,258.670105 
	C571.781006,257.578827 569.369019,256.775696 566.606934,257.064636 
	C568.669617,263.136536 575.715149,264.937469 585.802063,261.896271 
	C581.806580,260.816010 578.347351,259.880737 574.142822,258.670105 
M495.031616,219.753922 
	C492.818665,222.040909 489.463409,223.104874 487.514282,226.377670 
	C490.555908,227.309006 493.809631,229.946732 495.588867,228.058762 
	C497.737457,225.778885 499.273590,222.074371 498.468506,218.393677 
	C497.014923,217.964905 496.314819,218.755478 495.031616,219.753922 
M481.573486,282.562042 
	C479.176849,284.068420 476.027527,284.640198 474.720520,287.987762 
	C476.230408,289.544312 477.429993,291.273224 480.460724,291.523682 
	C480.609894,288.337250 484.899414,286.344604 481.573486,282.562042 
M544.596069,250.271713 
	C543.694763,250.325119 542.794067,249.317612 541.881592,250.249634 
	C544.589417,255.468353 544.657471,255.489349 548.768372,252.092697 
	C547.502930,251.488342 546.354004,250.939621 544.596069,250.271713 
z"/>
<path fill="#6b21a8" opacity="1.000000" stroke="none" 
	d="
M162.978760,590.702881 
	C160.847855,594.418335 158.893860,597.897888 156.951889,601.384033 
	C155.490738,604.007080 154.235611,607.031555 150.622528,607.024780 
	C147.210632,607.018433 146.094070,604.056580 144.685165,601.634705 
	C142.276978,597.495056 139.905014,593.334412 137.517838,589.182556 
	C137.027985,589.249268 136.538132,589.315979 136.048279,589.382690 
	C136.048279,594.730408 135.942398,600.080994 136.085892,605.424805 
	C136.180038,608.931580 136.111404,611.629700 131.262146,611.471985 
	C124.224724,611.242981 123.772369,611.223816 123.739067,605.431213 
	C123.668205,593.106873 123.714287,580.781982 123.697548,568.457275 
	C123.693901,565.774048 123.291855,562.744812 126.905540,562.111633 
	C130.587372,561.466553 134.281799,561.359009 136.557846,565.333435 
	C140.194351,571.683411 143.874039,578.008850 147.565735,584.327026 
	C148.389816,585.737366 149.002213,587.343689 151.085587,588.537415 
	C155.796646,581.901611 159.548874,574.760193 163.219940,567.585938 
	C165.111115,563.889893 167.419937,561.402832 172.084335,561.824829 
	C175.363632,562.121521 177.022110,563.457581 177.050476,566.724548 
	C177.166153,580.041443 177.114426,593.362183 177.442001,606.673767 
	C177.605438,613.315063 172.818695,611.374817 169.463913,611.695374 
	C165.707657,612.054260 164.666580,609.667419 164.751648,606.295471 
	C164.873444,601.468384 164.825455,596.635620 164.761429,591.806519 
	C164.750732,590.999756 165.320145,588.940430 162.978760,590.702881 
z"/>
<path fill="#6b21a8" opacity="1.000000" stroke="none" 
	d="
M355.826172,567.867798 
	C356.750549,566.442261 357.385437,565.258362 358.204620,564.219849 
	C360.686554,561.073547 364.158997,561.497986 367.389618,562.198547 
	C370.649628,562.905518 370.200073,565.878784 370.205719,568.345093 
	C370.234680,580.994324 370.256073,593.643616 370.231873,606.292786 
	C370.222168,611.359619 369.391235,611.767822 362.125153,611.721985 
	C358.008942,611.695984 357.213959,609.775452 357.472900,606.010864 
	C357.853302,600.481506 357.570984,594.906494 357.570984,588.029602 
	C353.511963,592.719360 351.859741,597.066956 349.635437,601.054565 
	C345.677429,608.150269 341.562531,608.351501 337.201874,601.484436 
	C334.739441,597.606628 332.482971,593.598022 329.206879,589.873047 
	C329.206879,595.442444 329.102570,601.014404 329.244080,606.580261 
	C329.335907,610.192505 327.990265,611.856628 324.239441,611.457092 
	C320.805359,611.091248 316.611694,612.512817 316.713806,606.419434 
	C316.925690,593.773987 316.751953,581.122314 316.790039,568.473389 
	C316.797791,565.891968 316.153198,562.681519 319.842682,562.049927 
	C323.307770,561.456665 326.867950,561.252625 329.051636,565.104492 
	C332.740295,571.610962 336.512390,578.070374 340.291687,584.524902 
	C341.030701,585.787048 341.961639,586.936829 343.320831,588.875488 
	C348.436676,582.131470 351.747803,574.975220 355.826172,567.867798 
z"/>
<path fill="#6b21a8" opacity="1.000000" stroke="none" 
	d="
M473.809662,643.466675 
	C480.451111,658.875366 473.561859,674.500793 459.844513,678.375732 
	C450.870300,680.910828 441.392426,680.022827 432.112366,679.675049 
	C429.695129,679.584412 428.929260,677.626831 428.941193,675.374146 
	C429.011566,662.091187 429.035309,648.807922 429.150208,635.525391 
	C429.177673,632.354248 430.440613,629.832520 434.082336,629.938171 
	C442.006012,630.168030 449.916046,629.053833 457.860352,631.182373 
	C464.971649,633.087708 469.982941,637.015930 473.809662,643.466675 
M447.627625,642.001038 
	C443.538147,641.538635 441.878113,643.282349 442.188385,647.439026 
	C442.460205,651.080566 442.244049,654.758423 442.246582,658.420227 
	C442.253723,668.788391 442.406372,668.923645 452.923096,667.926331 
	C457.981384,667.446655 461.920044,664.477417 462.604431,660.074341 
	C464.267120,649.377502 462.077026,641.279846 447.627625,642.001038 
z"/>
<path fill="#6b21a8" opacity="1.000000" stroke="none" 
	d="
M469.636017,531.435913 
	C464.159576,539.383057 457.090118,543.519531 447.605713,543.247498 
	C442.124756,543.090332 436.632690,543.110229 431.151093,543.255249 
	C427.427429,543.353821 425.694092,542.061096 425.743500,538.068970 
	C425.903931,525.105591 425.858582,512.139038 425.817657,499.174011 
	C425.807861,496.072083 426.692902,493.837738 430.203064,493.886383 
	C437.336182,493.985229 444.451874,493.548370 451.607971,494.288605 
	C469.770660,496.167480 478.455841,516.770630 469.636017,531.435913 
M448.560852,532.077576 
	C452.799591,530.655640 457.215210,529.553040 458.801422,524.469604 
	C461.698761,515.184265 458.287842,504.155518 444.034698,505.149658 
	C440.547363,505.392853 438.839417,506.222443 438.951752,509.979218 
	C439.134918,516.106079 439.184387,522.246704 438.983795,528.371521 
	C438.873566,531.738098 440.311981,532.856995 443.382111,532.624207 
	C444.862091,532.512024 446.344238,532.428162 448.560852,532.077576 
z"/>
<path fill="#6b21a8" opacity="1.000000" stroke="none" 
	d="
M274.763763,519.705688 
	C273.469513,529.967529 269.352600,537.768494 259.835205,542.104431 
	C247.728226,547.620056 232.237076,542.513611 226.385025,530.875000 
	C219.900696,517.978882 224.619202,502.325867 236.871262,496.088226 
	C250.006226,489.401093 265.112335,493.804047 271.681885,506.364410 
	C273.775848,510.367920 274.867249,514.719971 274.763763,519.705688 
M261.643860,516.884644 
	C260.887939,512.046509 258.985291,507.791565 254.291992,505.734436 
	C247.635956,502.817017 239.924530,506.273773 237.355759,512.987610 
	C234.263535,521.069641 237.847015,529.424438 245.626694,532.270996 
	C251.519745,534.427246 258.873505,530.192322 261.147369,523.128296 
	C261.690765,521.440186 261.511932,519.519653 261.643860,516.884644 
z"/>
<path fill="#6b21a8" opacity="1.000000" stroke="none" 
	d="
M308.929993,571.677490 
	C303.188904,574.717468 297.308929,572.713745 291.612610,573.313049 
	C289.991394,573.483643 288.107941,572.922180 286.933746,574.407227 
	C285.828949,575.804443 286.048828,577.591370 286.497742,579.205627 
	C286.942780,580.806213 288.413300,580.880249 289.759033,580.895813 
	C293.751465,580.942017 297.747253,581.040039 301.736420,580.928406 
	C305.700989,580.817444 307.396851,582.407654 307.428467,586.538330 
	C307.460968,590.786865 305.457764,592.157654 301.662933,592.126343 
	C298.003387,592.096191 294.341217,592.229614 290.683746,592.142700 
	C287.623138,592.070007 286.124359,593.130188 286.142151,596.473572 
	C286.159332,599.695557 287.345825,600.960754 290.567749,600.861816 
	C295.554108,600.708618 300.551086,600.920044 305.539062,600.795898 
	C309.199951,600.704773 311.053528,602.038452 311.236755,605.943054 
	C311.429016,610.039490 309.663940,611.807251 305.754883,611.829468 
	C296.438904,611.882446 287.122925,611.957520 277.806885,611.971497 
	C274.569824,611.976318 272.915161,610.287231 272.908081,607.010010 
	C272.878906,593.534241 272.848999,580.058350 272.794647,566.582642 
	C272.780945,563.185425 274.573334,561.819275 277.791656,561.831055 
	C286.775482,561.863953 295.764069,561.693115 304.741913,561.933228 
	C311.909271,562.124817 308.726990,567.628174 308.929993,571.677490 
z"/>
<path fill="#6b21a8" opacity="1.000000" stroke="none" 
	d="
M322.773193,498.333710 
	C322.944824,494.577087 325.073547,493.751556 327.893341,493.756866 
	C336.722046,493.773438 345.550812,493.808044 354.379395,493.776947 
	C358.385864,493.762848 359.441467,495.930176 359.325470,499.562317 
	C359.213776,503.060486 358.374329,505.386871 354.255005,505.272186 
	C349.594421,505.142334 344.926575,505.296844 340.263062,505.237732 
	C337.742798,505.205811 336.120270,505.832642 336.098358,508.821808 
	C336.075928,511.888763 337.486572,512.943176 340.377899,512.869019 
	C344.373047,512.766541 348.373871,512.908386 352.370789,512.847900 
	C355.796356,512.796143 356.680054,514.754517 356.401642,517.691895 
	C356.135101,520.503906 357.167511,524.162903 352.363525,524.149109 
	C348.365875,524.137634 344.365936,524.203491 340.371338,524.086731 
	C337.062317,523.989990 336.072327,525.628723 336.070251,528.702637 
	C336.068176,531.816650 337.519836,532.811890 340.377350,532.700073 
	C345.200623,532.511230 350.035431,532.553711 354.851746,532.268738 
	C358.425842,532.057251 360.144653,533.395630 360.166779,537.066650 
	C360.187683,540.537964 359.962921,543.377258 355.265228,543.287170 
	C346.106232,543.111633 336.939789,543.098694 327.780640,543.257935 
	C323.730499,543.328308 322.661072,541.483093 322.698364,537.780884 
	C322.829163,524.788513 322.754089,511.794037 322.773193,498.333710 
z"/>
<path fill="#6b21a8" opacity="1.000000" stroke="none" 
	d="
M528.968567,605.027588 
	C531.776855,602.611389 532.283325,599.011536 533.563538,595.847046 
	C537.416504,586.323425 542.310791,577.236572 545.442139,567.411072 
	C546.523743,564.017029 548.241272,561.509094 552.473755,561.708008 
	C556.458801,561.895264 560.038757,561.343384 562.096558,566.461182 
	C567.531921,579.978943 573.653381,593.219971 579.447510,606.594666 
	C581.340454,610.964233 580.692505,611.665344 576.044678,612.147095 
	C570.537964,612.717773 566.510986,611.335205 565.220947,605.408386 
	C564.640869,602.742981 562.923035,602.076721 560.455566,602.213257 
	C558.134888,602.341736 555.784241,602.428162 553.477539,602.208984 
	C548.001343,601.688477 543.486023,602.085266 541.713745,608.769958 
	C540.850891,612.024170 532.290100,613.616272 529.368713,611.641785 
	C526.775818,609.889343 528.976562,607.715210 528.963867,605.363770 
	C528.999817,604.990540 528.968567,605.027588 528.968567,605.027588 
M555.987854,582.616516 
	C555.559631,581.473755 555.713806,579.821899 553.473328,580.030090 
	C552.065369,583.176941 550.073608,586.198242 549.807434,590.128174 
	C552.757324,590.921997 555.406738,591.044495 558.091370,590.041687 
	C558.357300,587.373779 557.359802,585.315857 555.987854,582.616516 
z"/>
<path fill="#6b21a8" opacity="1.000000" stroke="none" 
	d="
M506.283203,534.212402 
	C503.035706,534.149597 500.203735,534.254456 497.383972,534.113525 
	C492.152039,533.852295 487.171539,533.385254 485.675171,540.515991 
	C485.095947,543.276245 474.718567,544.453308 472.689514,542.398438 
	C471.479431,541.172913 472.199554,539.982300 472.725311,538.747375 
	C478.373230,525.481262 484.114685,512.253113 489.571899,498.908813 
	C491.255035,494.793030 494.027679,493.778320 498.106018,493.649048 
	C502.162781,493.520447 504.623932,494.815765 506.226471,498.614380 
	C511.830688,511.898651 517.596313,525.115234 523.373352,538.325806 
	C524.876038,541.761963 524.015747,543.123962 520.195190,543.301575 
	C514.847229,543.550049 510.077301,543.357361 509.004028,536.610107 
	C508.811218,535.397888 507.998657,534.531250 506.283203,534.212402 
M500.872772,516.576904 
	C499.848785,514.995056 499.960022,512.660583 497.431793,511.650757 
	C495.916931,514.793579 493.793091,517.616455 494.028839,521.402832 
	C496.703613,522.298157 499.089172,522.189148 501.436707,521.510193 
	C502.456970,519.921753 501.720032,518.572083 500.872772,516.576904 
z"/>
<path fill="#6b21a8" opacity="1.000000" stroke="none" 
	d="
M231.419891,629.874146 
	C239.972641,630.231018 248.137268,628.805969 256.124268,631.674927 
	C264.252502,634.594727 267.902832,641.790283 267.973480,649.011353 
	C268.049622,656.790955 261.659180,663.791016 254.150330,665.229126 
	C250.720917,665.885925 247.271042,666.627808 243.801422,666.828125 
	C240.422577,667.023254 239.208969,668.316101 239.192688,671.733154 
	C239.157562,679.093079 236.329575,681.043030 228.961090,679.464661 
	C226.634537,678.966309 226.076126,677.372986 226.066635,675.440613 
	C226.000366,661.944885 225.960693,648.448853 225.981598,634.953064 
	C225.986542,631.764404 227.770309,630.072998 231.419891,629.874146 
M239.247604,650.284119 
	C238.832642,653.792114 240.474869,655.159912 243.878387,654.860718 
	C245.530624,654.715454 247.214554,654.902832 248.861053,654.725403 
	C252.918900,654.288086 255.072876,651.524292 254.608063,647.529785 
	C254.085571,643.039795 251.222656,641.786133 243.623291,641.907532 
	C237.609772,642.003662 239.672592,646.304260 239.247604,650.284119 
z"/>
<path fill="#6b21a8" opacity="1.000000" stroke="none" 
	d="
M208.880249,602.229004 
	C206.409729,602.229919 204.387421,602.431763 202.419403,602.190613 
	C197.892288,601.635742 195.288925,603.237061 194.121323,607.875793 
	C193.207214,611.507507 183.883163,613.623169 181.263992,611.105652 
	C179.898102,609.792786 180.512512,608.279968 181.069916,606.931763 
	C186.650436,593.433716 192.443100,580.020630 197.818237,566.441895 
	C199.798904,561.438354 203.512146,561.803650 207.573288,561.768127 
	C211.452271,561.734253 212.980499,563.910400 214.321686,567.154114 
	C219.772903,580.338013 225.470001,593.420166 231.060379,606.546692 
	C232.866272,610.787048 232.172516,611.674255 227.492798,611.982239 
	C222.568771,612.306274 218.470810,611.572510 217.334305,605.801086 
	C216.360077,600.853882 212.424576,602.501770 208.880249,602.229004 
M204.714508,580.799255 
	C203.590424,583.798279 201.539261,586.548828 202.022690,590.392578 
	C204.918671,590.704895 207.594635,591.285461 210.586136,589.749207 
	C209.462326,586.547729 208.506973,583.568970 207.349915,580.670654 
	C206.948669,579.665649 206.143234,578.281555 204.714508,580.799255 
z"/>
<path fill="#6b21a8" opacity="1.000000" stroke="none" 
	d="
M491.126221,671.891602 
	C489.427643,677.896179 486.368256,680.993591 479.892059,680.166199 
	C476.061310,679.676758 474.729706,678.823242 476.403870,674.935852 
	C481.319122,663.522827 486.062622,652.035706 490.868134,640.575378 
	C491.510315,639.044006 492.222107,637.531982 492.728027,635.955261 
	C493.958679,632.119507 495.955658,629.797852 500.537201,629.757874 
	C505.142303,629.717712 507.908051,631.128967 509.721039,635.549377 
	C514.751404,647.814697 520.212830,659.902588 525.341736,672.128601 
	C526.308044,674.432068 529.190125,677.207886 525.449097,679.485291 
	C522.032898,681.564819 514.188782,679.851196 513.599915,676.609375 
	C512.370239,669.839966 507.870453,669.772644 502.849396,670.283936 
	C498.998413,670.676086 494.903046,668.914856 491.126221,671.891602 
M503.078186,649.861328 
	C502.352448,649.076782 502.439209,647.580017 500.748291,647.382568 
	C499.422089,650.945007 497.315948,654.242310 496.917908,658.181458 
	C505.636932,659.821228 506.303802,659.119812 503.697296,651.404663 
	C503.592102,651.093262 503.505341,650.775574 503.078186,649.861328 
z"/>
<path fill="#6b21a8" opacity="1.000000" stroke="none" 
	d="
M422.489441,603.528564 
	C423.380066,606.261597 426.501923,609.202942 424.020111,610.908264 
	C421.195892,612.848816 416.996826,612.499207 413.514465,611.131287 
	C411.964966,610.522644 411.121796,608.805969 410.804230,607.127869 
	C410.024841,603.009827 407.430756,601.781494 403.557251,602.171326 
	C401.746002,602.353577 399.892212,602.331970 398.074402,602.189270 
	C392.663910,601.764893 387.925415,601.875793 386.472168,608.872620 
	C385.854706,611.845276 376.405914,613.167542 374.040985,611.060791 
	C372.774933,609.932983 373.261627,608.792969 373.807190,607.473877 
	C379.636292,593.379639 385.390717,579.254578 391.210114,565.156311 
	C392.415161,562.236938 394.944244,561.645630 397.799164,561.759155 
	C401.230774,561.895630 404.798096,561.241455 406.585205,565.603455 
	C411.733612,578.169800 417.091095,590.650452 422.489441,603.528564 
M398.428833,590.605835 
	C400.020660,590.453064 402.661713,591.043823 402.753387,589.235901 
	C402.932159,585.711243 401.688934,582.291504 398.916321,578.915833 
	C397.451477,582.171875 396.232208,584.853333 395.037323,587.545654 
	C393.760773,590.422119 395.658752,590.576782 398.428833,590.605835 
z"/>
<path fill="#6b21a8" opacity="1.000000" stroke="none" 
	d="
M187.825775,638.916504 
	C189.682343,633.422180 191.785400,628.989319 198.656906,629.882996 
	C201.645523,630.271667 203.829468,631.256653 204.968460,633.917542 
	C210.912323,647.803589 216.767807,661.727600 222.642990,675.643005 
	C223.197479,676.956238 223.292648,678.212952 221.974731,679.216858 
	C219.240784,681.299255 210.953552,679.387756 209.984680,676.030457 
	C208.534302,671.004700 205.437775,669.584656 200.656952,670.201965 
	C198.689850,670.455933 196.633209,670.495117 194.672684,670.226990 
	C189.824875,669.564026 186.888184,671.318481 185.284622,676.089355 
	C184.053406,679.752502 175.696014,681.598572 172.865555,679.118713 
	C171.058365,677.535400 172.122955,675.811890 172.844604,674.126770 
	C177.815918,662.517822 182.772278,650.902405 187.825775,638.916504 
M197.092834,647.564941 
	C195.726776,650.985596 193.486984,654.139709 193.630066,658.437927 
	C196.221588,658.851013 198.907486,659.888550 200.863998,658.158813 
	C203.056793,656.220154 200.807129,653.840820 200.117050,651.835999 
	C199.576675,650.266113 199.481110,648.217224 197.092834,647.564941 
z"/>
<path fill="#6b21a8" opacity="1.000000" stroke="none" 
	d="
M412.957886,676.852600 
	C411.759979,671.756104 409.133087,669.353149 403.988861,670.180298 
	C402.041748,670.493347 399.985016,670.416504 398.010437,670.209839 
	C393.016846,669.687073 389.434937,670.821045 387.824707,676.342957 
	C386.809143,679.825500 379.321869,681.398376 376.126892,679.304321 
	C374.265961,678.084534 374.827545,676.485840 375.493134,674.896484 
	C381.197052,661.275391 387.032623,647.707397 392.537720,634.006531 
	C394.289948,629.645752 397.546448,629.952698 401.089325,629.851013 
	C404.476868,629.753845 406.803619,630.885681 408.152130,634.126831 
	C413.822266,647.755066 419.529236,661.368469 425.315613,674.947632 
	C426.588593,677.935059 425.947388,679.696533 422.629883,679.369202 
	C419.410034,679.051575 415.473389,681.378296 412.957886,676.852600 
M402.955536,651.544373 
	C401.863861,650.238037 402.288757,647.965698 399.933746,647.027893 
	C399.028839,651.005127 395.951569,654.126221 396.327393,658.775208 
	C399.286835,658.920715 401.999908,659.680298 404.686493,658.394226 
	C405.413269,655.974915 403.607819,654.259460 402.955536,651.544373 
z"/>
<path fill="#6b21a8" opacity="1.000000" stroke="none" 
	d="
M372.367004,530.663635 
	C376.362640,532.921814 380.336151,532.922119 384.354492,532.728516 
	C386.561218,532.622192 388.398041,531.946960 388.648865,529.483459 
	C388.889893,527.116150 386.852448,526.378357 385.187866,525.821716 
	C380.963867,524.409180 376.562500,523.495605 372.403320,521.928101 
	C366.290680,519.624390 363.465851,515.152466 363.680817,508.392090 
	C363.890869,501.786896 367.510315,497.808838 372.900360,495.367493 
	C380.546265,491.904358 388.358765,492.329285 396.144257,495.518616 
	C400.698944,497.384430 400.197388,500.267700 398.739197,503.913605 
	C397.255402,507.623566 395.369110,507.881653 391.855255,506.218903 
	C388.320007,504.546082 384.339966,503.637085 380.250275,504.995026 
	C378.591827,505.545715 376.902740,506.047760 376.592529,507.912842 
	C376.214722,510.184692 378.080994,511.236786 379.769165,511.808075 
	C383.192688,512.966614 386.717896,513.837524 390.225037,514.733704 
	C397.826416,516.676025 402.871368,521.959473 402.977875,528.179932 
	C403.092468,534.873535 397.328278,541.489441 390.015442,543.336975 
	C382.099915,545.336731 374.580231,544.147034 367.153809,541.130310 
	C363.013184,539.448303 362.801147,536.828979 364.437225,533.163147 
	C366.110352,529.414429 368.205292,527.766724 372.367004,530.663635 
z"/>
<path fill="#6b21a8" opacity="1.000000" stroke="none" 
	d="
M312.609619,532.508606 
	C317.525421,531.874146 318.229553,534.483521 318.313965,538.215576 
	C318.407471,542.351440 316.368744,543.289978 312.753693,543.250305 
	C302.427246,543.136841 292.096985,543.106323 281.771790,543.269775 
	C277.450317,543.338135 276.096222,541.532471 276.786469,537.463684 
	C277.277374,534.569885 278.525848,532.236572 280.420624,529.979492 
	C286.091553,523.224426 291.560516,516.299072 297.062317,509.403473 
	C297.849548,508.416779 298.997314,507.506561 298.616119,505.623993 
	C293.449280,504.784210 288.153076,505.143677 282.913605,505.309540 
	C278.491486,505.449524 277.656921,503.328766 277.614227,499.518921 
	C277.569611,495.539246 278.855194,493.674225 283.047729,493.747955 
	C292.040131,493.906067 301.037018,493.795441 310.031921,493.830963 
	C316.785736,493.857635 319.214752,497.932220 315.718903,503.827698 
	C313.779114,507.098877 311.213806,510.005920 308.864838,513.026123 
	C305.185242,517.757202 301.426300,522.426636 297.755890,527.164734 
	C296.878387,528.297546 295.636169,529.347290 296.139740,531.721069 
	C301.397186,531.977844 306.802368,532.241821 312.609619,532.508606 
z"/>
<path fill="#6b21a8" opacity="1.000000" stroke="none" 
	d="
M529.013672,604.970581 
	C520.846741,612.066956 512.011108,615.195984 501.046295,611.383362 
	C489.621216,607.410767 483.740295,595.871643 484.225311,585.138367 
	C484.769440,573.096008 494.921875,562.557373 505.800446,561.709778 
	C512.872314,561.158752 519.826355,561.362000 525.611084,566.452942 
	C527.841614,568.415833 530.202087,570.228882 527.438354,573.415894 
	C524.990601,576.238464 522.573242,579.422791 518.350708,576.067993 
	C513.380493,572.119202 508.207855,572.350647 503.040588,575.422485 
	C497.493042,578.720398 496.076843,588.883728 500.112823,595.248779 
	C503.795319,601.056335 511.009277,602.779785 516.676392,599.205933 
	C523.248047,595.061646 526.392151,596.355652 528.989136,604.654785 
	C528.968567,605.027588 528.999817,604.990540 529.013672,604.970581 
z"/>
<path fill="#6b21a8" opacity="1.000000" stroke="none" 
	d="
M374.232422,669.614197 
	C375.027496,672.127563 373.504974,673.367371 372.184662,674.591736 
	C364.801392,681.438171 356.192078,682.226868 347.073853,679.171997 
	C339.136871,676.512878 333.641815,671.143982 331.686096,662.856323 
	C328.045044,647.426819 333.907776,636.157471 348.148132,630.653931 
	C355.592896,627.776794 368.173676,630.358826 373.363586,635.850220 
	C374.762726,637.330688 376.616913,639.355530 374.200836,640.804138 
	C371.562836,642.385864 370.781769,647.844299 365.957062,645.181213 
	C364.797302,644.541016 363.788239,643.613586 362.604431,643.033508 
	C356.665863,640.123535 349.905823,641.510498 346.354034,646.294312 
	C342.227234,651.852722 342.386230,659.790955 346.725311,664.835205 
	C350.452332,669.167908 357.320740,670.205383 362.756165,667.256531 
	C369.081390,663.825073 369.081360,663.825012 374.232422,669.614197 
z"/>
<path fill="#6b21a8" opacity="1.000000" stroke="none" 
	d="
M201.401215,522.096130 
	C204.725510,514.122375 207.810501,506.419952 211.079346,498.796356 
	C213.032333,494.241547 218.631866,492.087341 223.059494,493.935577 
	C225.093918,494.784821 225.096710,496.203094 224.341415,498.005981 
	C218.570663,511.781036 212.795135,525.554443 207.127304,539.371948 
	C205.606750,543.078857 202.712433,543.237244 199.379440,543.276184 
	C195.765106,543.318298 193.014954,542.723694 191.446701,538.849731 
	C185.971909,525.325684 180.287216,511.886108 174.619293,498.440948 
	C173.311584,495.338837 174.485809,494.176544 177.527283,493.855133 
	C185.365234,493.026855 186.620575,493.792542 189.495621,500.958923 
	C192.334946,508.036224 195.370865,515.034729 198.200912,522.115601 
	C199.164230,524.525879 199.983856,524.859192 201.401215,522.096130 
z"/>
<path fill="#6b21a8" opacity="1.000000" stroke="none" 
	d="
M255.344299,607.651001 
	C254.000961,613.808472 249.423370,611.707458 245.992981,611.769897 
	C242.497330,611.833618 241.871490,609.178528 241.882355,606.200195 
	C241.913269,597.720398 241.819672,589.240356 241.818634,580.760376 
	C241.817734,573.413818 241.844086,573.413879 234.536484,573.297852 
	C228.983078,573.209717 227.383224,571.367737 228.060257,566.042114 
	C228.409454,563.295166 229.766983,561.815918 232.599228,561.818054 
	C243.573135,561.826294 254.547180,561.797913 265.520844,561.852051 
	C269.721710,561.872803 270.079224,564.835876 270.119904,568.080322 
	C270.162201,571.457031 269.045715,573.248657 265.248627,573.371521 
	C255.363129,573.691589 255.366852,573.826538 255.363739,583.742126 
	C255.361282,591.557129 255.360641,599.372070 255.344299,607.651001 
z"/>
<path fill="#6b21a8" opacity="1.000000" stroke="none" 
	d="
M428.796692,573.341248 
	C421.142365,573.289978 420.285309,572.428894 420.892914,566.436035 
	C421.197235,563.434570 422.606995,561.854614 425.637634,561.848877 
	C436.440521,561.828247 447.243622,561.784912 458.046234,561.835815 
	C462.537781,561.856995 462.146179,565.219055 462.220184,568.252014 
	C462.294250,571.288452 461.628571,573.246338 457.889130,573.406860 
	C448.051270,573.829224 448.059143,573.968079 448.058655,583.895264 
	C448.058258,591.208191 447.940857,598.523438 448.094543,605.833069 
	C448.173767,609.601196 447.259399,611.914612 442.900299,611.820251 
	C435.734558,611.664978 434.798279,611.110657 434.767090,605.588562 
	C434.717285,596.780151 434.623779,587.967468 434.843475,579.164001 
	C434.947144,575.010132 433.793396,572.716736 428.796692,573.341248 
z"/>
<path fill="#6b21a8" opacity="1.000000" stroke="none" 
	d="
M286.168884,658.939758 
	C286.237823,669.552979 284.885437,668.622742 295.612885,668.713623 
	C297.776764,668.731934 299.958008,668.846375 302.101685,668.627258 
	C305.944275,668.234558 308.101562,669.326599 308.155518,673.674011 
	C308.208771,677.964783 306.546265,679.585327 302.215576,679.454041 
	C294.065063,679.206970 285.900543,679.281982 277.744843,679.411682 
	C274.151001,679.468872 272.672729,678.117432 272.677673,674.440552 
	C272.695343,661.293579 272.543732,648.145935 272.389191,634.999329 
	C272.332977,630.220154 275.362244,629.777832 279.055664,629.793213 
	C282.769562,629.808655 286.243683,629.718567 286.178925,634.977051 
	C286.082550,642.800659 286.162720,650.626465 286.168884,658.939758 
z"/>
<path fill="#6b21a8" opacity="1.000000" stroke="none" 
	d="
M325.197845,670.919312 
	C325.168640,678.958557 321.505157,681.545044 314.262695,679.229431 
	C311.401001,678.314514 311.817596,675.966003 311.808289,673.901794 
	C311.750519,661.108582 311.872986,648.313782 311.715302,635.522217 
	C311.660004,631.037231 313.767334,629.781006 317.837219,629.835388 
	C321.896179,629.889709 325.215790,630.305298 325.185333,635.541321 
	C325.127380,645.509766 325.183258,655.478882 325.192017,665.447754 
	C325.193451,667.109253 325.195557,668.770752 325.197845,670.919312 
z"/>
<path fill="#6b21a8" opacity="1.000000" stroke="none" 
	d="
M465.704376,569.169006 
	C465.895447,562.619568 471.207489,559.464355 476.524567,562.227173 
	C478.354797,563.178101 478.268951,564.865295 478.404388,566.518005 
	C479.534698,580.310059 477.851440,594.112671 478.580627,607.914246 
	C478.824463,612.528931 474.990601,611.837402 472.107239,611.977966 
	C468.960297,612.131409 465.887329,612.042480 465.893524,607.596497 
	C465.904175,599.939697 465.888428,592.282898 465.854401,584.626160 
	C465.832245,579.632812 465.758179,574.639771 465.704376,569.169006 
z"/>
<path fill="#6b21a8" opacity="1.000000" stroke="none" 
	d="
M406.853455,547.452148 
	C408.861206,547.147400 410.704315,546.700134 411.614777,548.582275 
	C412.527527,550.469055 410.989380,551.637756 409.808319,552.782288 
	C406.234253,556.246094 402.753937,559.910400 397.337555,560.266724 
	C395.901154,560.361206 394.222351,560.695862 393.320099,559.079956 
	C392.403931,557.439087 393.425598,556.163086 394.540009,555.160583 
	C398.097778,551.960266 400.387695,546.732483 406.853455,547.452148 
z"/>
</svg>
