<?xml version="1.0" standalone="no"?>
<!DOCTYPE svg PUBLIC "-//W3C//DTD SVG 20010904//EN"
 "http://www.w3.org/TR/2001/REC-SVG-20010904/DTD/svg10.dtd">
<svg version="1.0" xmlns="http://www.w3.org/2000/svg"
 width="660.000000pt" height="456.000000pt" viewBox="0 0 660.000000 456.000000"
 preserveAspectRatio="xMidYMid meet">

<g transform="translate(0.000000,456.000000) scale(0.100000,-0.100000)"
fill="#000000" stroke="none">
<path d="M3464 4272 c-6 -4 -45 -108 -86 -232 -42 -124 -148 -435 -237 -693
-89 -257 -161 -480 -161 -495 0 -23 86 -290 175 -544 32 -92 40 -78 164 295
104 310 143 417 156 417 2 0 33 -91 69 -202 114 -359 117 -368 107 -386 -5 -9
-32 -25 -60 -35 -62 -22 -101 -69 -108 -130 -9 -76 30 -125 119 -151 66 -20
67 -30 21 -153 -118 -308 -143 -376 -172 -464 -18 -52 -40 -108 -50 -123 l-19
-28 -316 953 c-410 1236 -467 1400 -478 1397 -6 -2 -120 -316 -253 -698 -157
-448 -248 -695 -256 -695 -8 0 -94 171 -204 402 -104 221 -195 407 -200 412
-6 6 -15 7 -21 3 -6 -4 -93 -182 -193 -397 -194 -415 -206 -439 -222 -430 -5
4 -34 37 -65 76 -46 58 -60 69 -86 69 -16 0 -157 -27 -312 -59 -154 -33 -342
-71 -416 -86 -74 -14 -146 -30 -159 -36 -47 -20 1 -37 199 -74 107 -21 262
-49 343 -65 106 -19 154 -33 167 -46 10 -11 95 -154 190 -319 94 -165 176
-303 183 -307 6 -4 15 -4 19 0 5 6 246 511 320 671 29 63 30 64 48 45 11 -10
118 -221 238 -469 220 -454 444 -899 463 -923 6 -7 15 -12 21 -10 5 2 56 102
112 223 57 121 142 301 190 400 50 103 88 193 88 210 0 17 -27 108 -61 202
-33 95 -70 208 -82 250 -22 81 -34 103 -53 103 -6 0 -54 -106 -106 -236 -93
-232 -95 -235 -112 -214 -11 14 -18 38 -17 64 0 48 208 658 226 663 6 2 20
-20 31 -49 40 -107 228 -655 367 -1068 78 -234 168 -497 200 -585 31 -88 88
-250 126 -360 39 -109 75 -205 80 -211 16 -19 36 -6 42 26 4 15 49 149 102
296 53 148 115 321 136 384 43 124 62 160 84 160 7 0 73 -55 147 -122 232
-214 218 -198 218 -258 0 -93 49 -157 128 -167 65 -7 142 62 142 129 0 35 19
53 94 87 33 15 201 96 372 180 l310 152 58 -27 c67 -31 114 -28 153 8 44 41
56 76 50 145 -7 74 -53 8 393 562 l314 391 56 0 c134 0 209 108 144 207 -36
55 -80 76 -138 68 l-43 -7 -366 459 -367 458 6 78 7 77 -42 40 c-54 52 -92 56
-173 19 l-46 -22 -289 134 c-158 74 -333 156 -388 184 l-99 50 -17 53 c-20 65
-41 89 -89 102 -100 27 -179 -54 -165 -171 l6 -44 -156 -175 c-86 -96 -163
-179 -172 -183 -10 -6 -18 -5 -24 4 -5 8 -70 199 -144 426 -75 227 -139 414
-143 417 -5 3 -13 2 -18 -2z m1146 -602 c342 -154 507 -236 519 -258 6 -11 11
-32 11 -45 0 -22 -18 -35 -139 -101 -77 -42 -148 -76 -158 -76 -13 0 -89 90
-241 285 -122 156 -222 287 -222 291 0 8 -14 14 230 -96z m-531 -140 c-53
-144 -177 -460 -184 -468 -1 -1 -17 37 -34 85 -70 194 -72 187 122 393 83 88
152 158 154 156 1 -1 -24 -76 -58 -166z m301 -100 c135 -352 152 -401 139
-417 -19 -22 -141 -87 -161 -86 -10 1 -32 11 -48 23 l-30 21 1 357 c0 247 3
349 10 332 6 -14 46 -117 89 -230z m78 128 c142 -176 312 -399 312 -408 0 -10
-153 -90 -173 -90 -8 0 -19 12 -25 28 -10 24 -110 292 -193 515 -16 42 -27 77
-24 77 2 0 49 -55 103 -122z m-247 -249 c2 -289 0 -328 -15 -350 -18 -29 -55
-49 -89 -49 -39 0 -167 52 -167 68 0 8 38 112 84 231 46 119 103 269 127 333
24 64 47 111 51 104 4 -6 8 -158 9 -337z m962 -35 c9 -9 -97 -216 -122 -238
-38 -35 -79 -25 -128 28 -24 26 -43 52 -43 57 0 12 253 159 276 159 6 0 13 -3
17 -6z m111 -46 c16 -27 122 -495 113 -504 -9 -9 -195 95 -212 119 -8 12 -15
33 -15 47 0 14 -9 40 -20 58 -11 18 -20 41 -20 51 0 10 23 67 51 127 62 131
76 145 103 102z m290 -248 c219 -269 486 -610 486 -621 0 -6 -26 4 -57 22 -48
26 -178 99 -474 262 -14 8 -33 30 -42 50 -24 49 -127 496 -119 515 6 18 -2 27
206 -228z m-714 60 c38 -46 42 -54 35 -88 -4 -20 -8 -61 -8 -91 -2 -52 -3 -55
-56 -98 -30 -24 -66 -50 -82 -58 l-28 -15 -29 78 c-60 156 -74 202 -69 216 5
13 168 104 189 105 3 1 25 -22 48 -49z m-301 -104 c16 -19 61 -155 61 -184 0
-21 -3 -23 -32 -17 -54 12 -161 54 -180 72 -38 34 -24 56 71 110 66 37 65 37
80 19z m-473 -96 c49 -19 46 -80 -6 -133 -35 -34 -43 -38 -54 -26 -18 19 -78
188 -71 199 3 5 29 0 58 -11 29 -12 62 -25 73 -29z m1190 -131 c60 -33 120
-70 133 -82 30 -28 51 -77 51 -122 0 -33 -2 -35 -27 -29 -104 23 -135 42 -170
103 -15 25 -46 73 -70 106 -41 56 -53 85 -35 85 5 0 58 -27 118 -61z m-343 6
c-5 -61 -47 -90 -94 -65 -28 16 -24 24 29 63 54 41 68 41 65 2z m-429 -17 c67
-23 129 -48 138 -56 16 -13 1 -27 -164 -159 -137 -110 -182 -142 -189 -132 -5
8 -9 81 -9 163 l0 149 40 39 c23 21 46 38 52 38 6 0 65 -19 132 -42z m578 23
c27 -22 133 -170 126 -177 -6 -6 -210 55 -222 66 -22 22 26 130 58 130 7 0 24
-9 38 -19z m-872 -219 c6 -175 1 -212 -23 -212 -31 0 -49 33 -88 163 l-42 138
34 36 c47 49 91 75 104 62 6 -5 12 -87 15 -187z m635 81 c40 -19 41 -25 20
-96 -16 -56 -31 -84 -39 -76 -3 2 -18 41 -35 85 -22 61 -27 84 -18 93 15 15
30 14 72 -6z m-126 -75 c15 -35 38 -92 51 -128 l22 -66 -26 -38 c-19 -29 -26
-52 -26 -87 0 -45 -3 -50 -46 -84 -49 -37 -84 -43 -120 -22 -47 28 -254 180
-254 188 0 6 360 299 368 299 2 0 16 -28 31 -62z m921 3 c99 -52 311 -173 307
-177 -2 -2 -42 7 -89 21 -47 14 -125 34 -173 46 -49 11 -99 28 -113 37 -27 18
-52 68 -52 106 l0 25 38 -17 c20 -10 57 -28 82 -41z m-512 -16 c68 -19 136
-44 152 -55 27 -19 110 -139 110 -159 0 -17 -13 -20 -146 -30 -71 -6 -150 -14
-176 -17 -45 -6 -50 -4 -86 33 -22 22 -50 48 -65 59 l-25 19 24 85 c25 86 46
115 74 104 8 -3 70 -21 138 -39z m332 -106 c0 -4 -9 -13 -19 -18 -15 -9 -22
-6 -34 13 -9 13 -14 26 -11 29 8 8 64 -13 64 -24z m308 -76 c65 -20 81 -28 66
-34 -60 -24 -174 7 -174 46 0 20 8 19 108 -12z m-1553 -105 c3 -13 4 -96 3
-186 l-3 -163 -45 32 c-71 51 -100 81 -100 104 0 24 46 168 66 208 19 36 71
39 79 5z m1790 -7 l40 -7 -253 -127 c-139 -70 -257 -125 -261 -123 -5 3 -1 36
8 73 15 62 21 73 81 130 l65 63 140 -1 c77 0 158 -4 180 -8z m-1603 -72 c134
-90 149 -103 135 -122 -7 -8 -61 -47 -121 -86 -85 -56 -111 -69 -122 -60 -11
9 -14 49 -14 176 0 142 2 164 15 159 8 -3 56 -33 107 -67z m992 40 c-2 -23
-224 -325 -263 -356 -25 -22 -79 -16 -95 10 -21 32 -76 212 -76 247 0 19 11
42 29 62 29 33 31 33 163 44 179 16 243 14 242 -7z m87 -65 c13 -16 12 -27
-27 -161 -15 -51 -17 -53 -99 -98 -46 -25 -98 -48 -116 -52 l-33 -6 39 54
c125 173 206 279 214 279 5 0 14 -7 22 -16z m569 7 c0 -6 -83 -112 -185 -236
-102 -125 -254 -312 -337 -416 -84 -104 -156 -189 -160 -189 -14 0 -8 31 56
292 41 170 69 265 82 279 16 18 515 277 537 278 4 1 7 -3 7 -8z m-1293 -107
c-12 -25 -21 -31 -36 -27 -36 9 -46 31 -25 54 47 53 90 34 61 -27z m154 -39
c15 -44 29 -95 33 -113 l6 -32 -31 15 c-17 9 -48 33 -71 53 -36 33 -40 40 -35
74 7 49 33 90 55 86 11 -2 26 -31 43 -83z m-253 -22 c23 -15 44 -35 47 -44 5
-16 -79 -259 -111 -321 -14 -28 -47 -43 -81 -36 -26 5 -185 205 -181 229 3 18
251 199 273 199 6 0 30 -12 53 -27z m-562 -82 c21 -15 50 -40 63 -54 l23 -26
-43 -21 c-43 -22 -144 -60 -161 -60 -15 0 -9 29 23 110 17 44 36 80 43 80 7 0
31 -13 52 -29z m784 -79 l49 -43 -6 -52 c-3 -29 -10 -60 -15 -70 -10 -20 -198
-117 -227 -117 -42 0 -41 10 41 227 l50 133 30 -18 c16 -9 51 -36 78 -60z
m525 -24 c-23 -120 -110 -475 -119 -485 -6 -7 -16 -9 -23 -5 -14 9 -113 237
-113 260 0 10 9 31 20 47 11 17 20 43 20 58 0 48 17 65 108 112 107 54 116 55
107 13z m-1046 -145 c94 -112 102 -132 77 -181 -33 -63 -83 -92 -294 -168 -67
-25 -94 -31 -97 -21 -91 248 -115 320 -115 336 0 15 23 29 108 64 59 25 123
52 142 60 72 31 82 27 179 -90z m551 -93 c0 -17 -132 -170 -146 -170 -30 0
-44 13 -44 44 0 17 4 36 8 42 7 11 159 92 175 94 4 0 7 -5 7 -10z m159 -20
c23 -12 123 -243 115 -264 -13 -33 -51 -28 -191 25 -76 28 -142 55 -146 59 -9
8 46 85 106 148 42 43 77 53 116 32z m-1179 -43 c0 -1 20 -52 45 -112 25 -61
45 -116 45 -122 0 -7 -17 -21 -37 -31 -46 -23 -173 -66 -178 -60 -3 2 16 62
41 134 25 71 50 144 56 162 6 17 15 32 20 32 4 0 8 -1 8 -3z m581 -159 c3 -27
-4 -47 -58 -188 -70 -181 -141 -337 -158 -343 -6 -3 -17 -2 -23 2 -11 7 -152
364 -152 386 0 7 33 27 73 43 278 116 316 127 318 100z m249 -9 c0 -23 -317
-425 -327 -415 -2 2 29 86 69 186 l73 183 45 12 c25 6 60 21 79 32 32 20 61
21 61 2z m272 -99 c106 -40 139 -57 144 -73 5 -16 0 -26 -17 -39 -32 -24 -588
-294 -667 -324 -35 -14 -62 -19 -60 -13 9 26 375 498 393 507 23 11 27 10 207
-58z m-912 -230 c33 -85 65 -165 70 -178 8 -18 7 -23 -4 -20 -15 3 -336 288
-336 299 0 7 57 33 130 58 41 14 58 16 67 7 6 -6 39 -81 73 -166z"/>
</g>
</svg>
